<svg width="36" height="36" viewBox="0 0 36 36" fill="none" xmlns="http://www.w3.org/2000/svg">
<path d="M25.729 22.6415H24.1029L23.5266 22.0858C25.6135 19.6652 26.7604 16.575 26.7581 13.3791C26.7581 10.7329 25.9735 8.14624 24.5034 5.94606C23.0333 3.74589 20.9437 2.03106 18.499 1.01843C16.0543 0.00579697 13.3642 -0.259153 10.7689 0.257081C8.17366 0.773316 5.78974 2.04755 3.91864 3.91864C2.04755 5.78974 0.773316 8.17366 0.257081 10.7689C-0.259153 13.3642 0.00579698 16.0543 1.01843 18.499C2.03106 20.9437 3.74589 23.0333 5.94606 24.5034C8.14624 25.9735 10.7329 26.7581 13.3791 26.7581C16.693 26.7581 19.7393 25.5437 22.0858 23.5266L22.6415 24.1029V25.729L32.9331 36L36 32.9331L25.729 22.6415ZM13.3791 22.6415C8.25386 22.6415 4.11664 18.5043 4.11664 13.3791C4.11664 8.25386 8.25386 4.11664 13.3791 4.11664C18.5043 4.11664 22.6415 8.25386 22.6415 13.3791C22.6415 18.5043 18.5043 22.6415 13.3791 22.6415Z" fill="#D6D6D6" fill-opacity="0.8"/>
</svg>
