<svg width="56" height="56" viewBox="0 0 56 56" fill="none" xmlns="http://www.w3.org/2000/svg">
<path d="M27.9999 1.33337C13.2719 1.33337 1.33325 13.272 1.33325 28C1.33325 42.728 13.2719 54.6667 27.9999 54.6667C42.7279 54.6667 54.6666 42.728 54.6666 28C54.6666 13.272 42.7279 1.33337 27.9999 1.33337Z" stroke="#D6D6D6" stroke-opacity="0.8" stroke-width="1.5" stroke-linecap="round" stroke-linejoin="round"/>
<path d="M7.38916 44.9227C7.38916 44.9227 13.3332 37.3333 27.9998 37.3333C42.6665 37.3333 48.6132 44.9227 48.6132 44.9227M27.9998 28C30.1216 28 32.1564 27.1571 33.6567 25.6569C35.157 24.1566 35.9998 22.1217 35.9998 20C35.9998 17.8783 35.157 15.8434 33.6567 14.3431C32.1564 12.8429 30.1216 12 27.9998 12C25.8781 12 23.8433 12.8429 22.343 14.3431C20.8427 15.8434 19.9998 17.8783 19.9998 20C19.9998 22.1217 20.8427 24.1566 22.343 25.6569C23.8433 27.1571 25.8781 28 27.9998 28Z" stroke="#D6D6D6" stroke-opacity="0.8" stroke-width="1.5" stroke-linecap="round" stroke-linejoin="round"/>
</svg>
